<svg width="33" height="78" viewBox="0 0 33 78" fill="none" xmlns="http://www.w3.org/2000/svg">
<g id="Group 35348">
<path id="Vector" d="M32.6992 14.9893L31.9996 42.9116L31.1334 77.5367H1.64683L0.631596 36.9693L0.0810547 14.9893H32.6992Z" fill="#E6E6E6"/>
<path id="Vector_2" d="M18.3472 0.133789H14.1721V55.3841H18.3472V0.133789Z" fill="#4A4458"/>
<path id="Vector_3" d="M30.6116 36.0282L29.822 75.7149H2.94525L2.02002 29.2176C4.44143 28.5384 6.97698 28.3645 9.46863 28.7067C11.9603 29.049 14.3547 29.9001 16.5025 31.2071C20.9931 33.8596 26.0378 35.2874 30.6116 36.0282Z" fill="#6318AF"/>
<path id="Vector_4" d="M9.59863 40.4961H5.76758V44.3223H9.59863V40.4961Z" fill="#E6E6E6"/>
<path id="Vector_5" d="M12.2083 32.6777H8.3772V36.504H12.2083V32.6777Z" fill="#E6E6E6"/>
<path id="Vector_6" d="M20.4348 38.0908L17.3577 35.8115L15.0755 38.8848L18.1526 41.164L20.4348 38.0908Z" fill="#E6E6E6"/>
<path id="Vector_7" d="M27.3564 44.8701L24.2793 42.5908L21.9971 45.6641L25.0743 47.9433L27.3564 44.8701Z" fill="#E6E6E6"/>
<path id="Vector_8" d="M15.614 48.7793L12.5369 46.5L10.2547 49.5732L13.3318 51.8525L15.614 48.7793Z" fill="#E6E6E6"/>
<path id="Vector_9" d="M24.6097 31.1477C25.0421 31.1477 25.3926 30.7976 25.3926 30.3658C25.3926 29.934 25.0421 29.584 24.6097 29.584C24.1774 29.584 23.8269 29.934 23.8269 30.3658C23.8269 30.7976 24.1774 31.1477 24.6097 31.1477Z" fill="#3F3D56"/>
<path id="Vector_10" d="M8.69226 25.9348C9.1246 25.9348 9.47507 25.5847 9.47507 25.1529C9.47507 24.7211 9.1246 24.3711 8.69226 24.3711C8.25991 24.3711 7.90942 24.7211 7.90942 25.1529C7.90942 25.5847 8.25991 25.9348 8.69226 25.9348Z" fill="#3F3D56"/>
<path id="Vector_11" d="M22.0004 20.4621C22.4327 20.4621 22.7832 20.1121 22.7832 19.6803C22.7832 19.2485 22.4327 18.8984 22.0004 18.8984C21.568 18.8984 21.2175 19.2485 21.2175 19.6803C21.2175 20.1121 21.568 20.4621 22.0004 20.4621Z" fill="#3F3D56"/>
</g>
</svg>
