<svg width="173" height="172" viewBox="0 0 173 172" fill="none" xmlns="http://www.w3.org/2000/svg">
<g id="Group 35349">
<path id="Vector" d="M86.6802 171.298C134.043 171.298 172.438 132.952 172.438 85.6491C172.438 38.3464 134.043 0 86.6802 0C39.3177 0 0.922852 38.3464 0.922852 85.6491C0.922852 132.952 39.3177 171.298 86.6802 171.298Z" fill="#6318AF"/>
<path id="Vector_2" opacity="0.2" d="M86.6803 148.165C72.1988 148.165 58.1654 143.15 46.9711 133.975C35.7768 124.799 28.1143 112.031 25.2892 97.8457C22.4641 83.6604 24.6511 68.9356 31.4777 56.1803C38.3043 43.4249 49.348 33.4282 62.7271 27.8934C76.1063 22.3586 90.9931 21.6282 104.851 25.8267C118.709 30.0252 130.68 38.8928 138.726 50.9185C146.771 62.9442 150.393 77.384 148.973 91.7775C147.554 106.171 141.181 119.628 130.941 129.855C125.142 135.678 118.245 140.295 110.647 143.438C103.05 146.581 94.9036 148.188 86.6803 148.165ZM86.6803 26.9896C54.2941 26.9896 27.9462 53.3043 27.9462 85.6495C27.9462 117.995 54.2941 144.31 86.6803 144.31C119.066 144.31 145.414 117.995 145.414 85.6495C145.414 53.3043 119.066 26.9896 86.6803 26.9896Z" fill="black"/>
<path id="Vector_3" d="M86.6802 146.237C120.184 146.237 147.345 119.111 147.345 85.6493C147.345 52.1876 120.184 25.0615 86.6802 25.0615C53.1762 25.0615 26.0159 52.1876 26.0159 85.6493C26.0159 119.111 53.1762 146.237 86.6802 146.237Z" fill="#3F3D56"/>
<path id="Vector_4" d="M41.5654 61.4222C41.1054 60.5223 40.8274 59.5406 40.7475 58.5333C40.6675 57.526 40.7871 56.5128 41.0995 55.5517C41.4118 54.5906 41.9108 53.7005 42.5678 52.9321C43.2249 52.1637 44.0271 51.5322 44.9287 51.0736C45.8302 50.6151 46.8135 50.3385 47.8221 50.2597C48.8308 50.1809 49.8451 50.3015 50.8071 50.6145C51.769 50.9274 52.6598 51.4267 53.4285 52.0837C54.1972 52.7407 54.8286 53.5426 55.2868 54.4435L72.426 88.0572C72.8861 88.9572 73.1641 89.9388 73.244 90.9461C73.324 91.9534 73.2044 92.9666 72.892 93.9277C72.5796 94.8888 72.0807 95.779 71.4237 96.5474C70.7666 97.3158 69.9644 97.9473 69.0628 98.4058C68.1612 98.8643 67.178 99.1409 66.1694 99.2197C65.1607 99.2985 64.1464 99.178 63.1844 98.865C62.2224 98.552 61.3316 98.0528 60.563 97.3957C59.7943 96.7387 59.1628 95.9368 58.7047 95.0359L41.5654 61.4222Z" fill="#FF6584"/>
<path id="Vector_5" opacity="0.2" d="M43.4771 65.1717L42.686 63.6203C46.6339 60.5567 51.2697 58.3036 56.4074 56.6416L57.1984 58.193C51.6379 59.3495 46.9072 61.4897 43.4771 65.1717Z" fill="black"/>
<path id="Vector_6" opacity="0.2" d="M47.1687 72.412L46.3777 70.8605C50.3255 67.7969 54.9614 65.5438 60.099 63.8818L60.8901 65.4332C55.3296 66.5897 50.5988 68.7299 47.1687 72.412Z" fill="black"/>
<path id="Vector_7" opacity="0.2" d="M50.8601 79.6512L50.0691 78.0998C54.0169 75.0362 58.6528 72.7831 63.7904 71.1211L64.5815 72.6725C59.021 73.829 54.2902 75.9692 50.8601 79.6512Z" fill="black"/>
<path id="Vector_8" opacity="0.2" d="M54.5518 86.8914L53.7607 85.34C57.7086 82.2764 62.3444 80.0233 67.4821 78.3613L68.2731 79.9127C62.7126 81.0692 57.9819 83.2094 54.5518 86.8914Z" fill="black"/>
<path id="Vector_9" opacity="0.2" d="M58.2432 94.1317L57.4521 92.5803C61.4 89.5167 66.0359 87.2636 71.1735 85.6016L71.9646 87.153C66.404 88.3094 61.6733 90.4496 58.2432 94.1317Z" fill="black"/>
<path id="Vector_10" d="M28.7072 74.0065C28.2472 73.1065 27.9694 72.1249 27.8895 71.1177C27.8096 70.1104 27.9293 69.0973 28.2417 68.1363C28.5541 67.1753 29.053 66.2852 29.7101 65.5169C30.3671 64.7486 31.1693 64.1171 32.0708 63.6586C32.9723 63.2001 33.9554 62.9235 34.964 62.8447C35.9726 62.7659 36.9868 62.8864 37.9488 63.1993C38.9107 63.5122 39.8015 64.0114 40.5701 64.6683C41.3388 65.3252 41.9703 66.127 42.4285 67.0278L59.5678 100.641C60.4918 102.458 60.6559 104.568 60.0239 106.505C59.3918 108.443 58.0155 110.051 56.1972 110.976C54.3789 111.9 52.2673 112.066 50.3265 111.437C48.3857 110.808 46.7743 109.435 45.8464 107.62L28.7072 74.0065Z" fill="#FF6584"/>
<path id="Vector_11" opacity="0.2" d="M30.6187 77.7557L29.8276 76.2043C33.7755 73.1407 38.4113 70.8876 43.549 69.2256L44.3401 70.777C38.7795 71.9335 34.0488 74.0736 30.6187 77.7557Z" fill="black"/>
<path id="Vector_12" opacity="0.2" d="M34.3103 84.995L33.5193 83.4436C37.4671 80.38 42.103 78.1268 47.2407 76.4648L48.0317 78.0162C42.4712 79.1727 37.7404 81.3129 34.3103 84.995Z" fill="black"/>
<path id="Vector_13" opacity="0.2" d="M38.0017 92.2352L37.2107 90.6838C41.1585 87.6202 45.7944 85.3671 50.9321 83.7051L51.7231 85.2565C46.1626 86.4129 41.4318 88.5532 38.0017 92.2352Z" fill="black"/>
<path id="Vector_14" opacity="0.2" d="M41.6934 99.4754L40.9023 97.924C44.8502 94.8604 49.4861 92.6073 54.6237 90.9453L55.4148 92.4967C49.8542 93.6532 45.1235 95.7934 41.6934 99.4754Z" fill="black"/>
<path id="Vector_15" opacity="0.2" d="M45.3848 106.715L44.5938 105.163C48.5416 102.1 53.1774 99.8466 58.3151 98.1846L59.1062 99.736C53.5456 100.892 48.8149 103.033 45.3848 106.715Z" fill="black"/>
<path id="Vector_16" d="M127.215 87.5766L127.269 87.5767C129.115 87.5922 130.923 87.0516 132.457 86.0255C133.991 84.9994 135.179 83.5354 135.867 81.8245C137.283 78.251 137.996 74.4387 137.969 70.5959C137.872 54.3305 124.623 40.9867 108.338 40.7617C101.403 40.6648 94.6474 42.966 89.2169 47.2753C83.7864 51.5846 80.015 57.6368 78.542 64.406C77.069 71.1751 77.985 78.2448 81.1348 84.4165C84.2847 90.5882 89.4745 95.4822 95.8245 98.2689C97.5025 99.0109 99.366 99.2291 101.17 98.8949C102.975 98.5608 104.636 97.6898 105.936 96.3962C108.725 93.5964 112.041 91.3757 115.693 89.862C119.345 88.3483 123.261 87.5716 127.215 87.5766Z" fill="#E6E6E6"/>
<path id="Vector_17" d="M111.773 78.4889C117.256 78.4889 121.7 74.0501 121.7 68.5745C121.7 63.099 117.256 58.6602 111.773 58.6602C106.291 58.6602 101.846 63.099 101.846 68.5745C101.846 74.0501 106.291 78.4889 111.773 78.4889Z" fill="#F9A825"/>
<path id="Vector_18" d="M90.1985 67.4599C90.8443 67.4599 91.3679 66.937 91.3679 66.292C91.3679 65.6469 90.8443 65.124 90.1985 65.124C89.5526 65.124 89.0291 65.6469 89.0291 66.292C89.0291 66.937 89.5526 67.4599 90.1985 67.4599Z" fill="#3F3D56"/>
<path id="Vector_19" d="M51.594 68.5615C52.2399 68.5615 52.7634 68.0386 52.7634 67.3935C52.7634 66.7485 52.2399 66.2256 51.594 66.2256C50.9481 66.2256 50.4246 66.7485 50.4246 67.3935C50.4246 68.0386 50.9481 68.5615 51.594 68.5615Z" fill="#3F3D56"/>
<path id="Vector_20" d="M96.4312 55.3554C97.077 55.3554 97.6006 54.8325 97.6006 54.1875C97.6006 53.5424 97.077 53.0195 96.4312 53.0195C95.7853 53.0195 95.2617 53.5424 95.2617 54.1875C95.2617 54.8325 95.7853 55.3554 96.4312 55.3554Z" fill="#3F3D56"/>
<path id="Vector_21" d="M96.398 89.0205C97.0438 89.0205 97.5674 88.4976 97.5674 87.8525C97.5674 87.2075 97.0438 86.6846 96.398 86.6846C95.7521 86.6846 95.2285 87.2075 95.2285 87.8525C95.2285 88.4976 95.7521 89.0205 96.398 89.0205Z" fill="#3F3D56"/>
<path id="Vector_22" d="M119.561 52.9433C120.206 52.9433 120.73 52.4204 120.73 51.7754C120.73 51.1303 120.206 50.6074 119.561 50.6074C118.915 50.6074 118.391 51.1303 118.391 51.7754C118.391 52.4204 118.915 52.9433 119.561 52.9433Z" fill="#3F3D56"/>
<path id="Vector_23" d="M44.0059 84.8896C44.6517 84.8896 45.1753 84.3667 45.1753 83.7217C45.1753 83.0766 44.6517 82.5537 44.0059 82.5537C43.36 82.5537 42.8364 83.0766 42.8364 83.7217C42.8364 84.3667 43.36 84.8896 44.0059 84.8896Z" fill="#3F3D56"/>
<path id="Vector_24" d="M52.554 101.688C53.1998 101.688 53.7234 101.166 53.7234 100.52C53.7234 99.8755 53.1998 99.3525 52.554 99.3525C51.9081 99.3525 51.3845 99.8755 51.3845 100.52C51.3845 101.166 51.9081 101.688 52.554 101.688Z" fill="#3F3D56"/>
<path id="Vector_25" d="M106.258 107.13C108.695 107.13 110.67 105.157 110.67 102.724C110.67 100.29 108.695 98.3174 106.258 98.3174C103.822 98.3174 101.846 100.29 101.846 102.724C101.846 105.157 103.822 107.13 106.258 107.13Z" fill="#FF6584"/>
<path id="Vector_26" opacity="0.2" d="M109.567 102.999C109.567 103.876 109.219 104.716 108.598 105.336C107.977 105.956 107.136 106.304 106.258 106.304C105.381 106.304 104.539 105.956 103.918 105.336C103.298 104.716 102.949 103.876 102.949 102.999" fill="black"/>
<path id="Vector_27" opacity="0.2" d="M102.949 102.448C102.949 101.572 103.298 100.731 103.918 100.112C104.539 99.4917 105.381 99.1436 106.258 99.1436C107.136 99.1436 107.977 99.4917 108.598 100.112C109.219 100.731 109.567 101.572 109.567 102.448" fill="black"/>
<path id="Vector_28" d="M104.604 101.622C104.756 101.622 104.88 101.437 104.88 101.209C104.88 100.981 104.756 100.796 104.604 100.796C104.452 100.796 104.328 100.981 104.328 101.209C104.328 101.437 104.452 101.622 104.604 101.622Z" fill="#FF6584"/>
<path id="Vector_29" d="M106.258 101.071C106.41 101.071 106.534 100.886 106.534 100.658C106.534 100.43 106.41 100.245 106.258 100.245C106.106 100.245 105.982 100.43 105.982 100.658C105.982 100.886 106.106 101.071 106.258 101.071Z" fill="#FF6584"/>
<path id="Vector_30" d="M106.258 104.651C106.41 104.651 106.534 104.466 106.534 104.238C106.534 104.01 106.41 103.825 106.258 103.825C106.106 103.825 105.982 104.01 105.982 104.238C105.982 104.466 106.106 104.651 106.258 104.651Z" fill="#FF6584"/>
<path id="Vector_31" d="M107.913 102.448C108.065 102.448 108.188 102.263 108.188 102.035C108.188 101.807 108.065 101.622 107.913 101.622C107.76 101.622 107.637 101.807 107.637 102.035C107.637 102.263 107.76 102.448 107.913 102.448Z" fill="#FF6584"/>
<path id="Vector_32" d="M107.637 105.478C107.789 105.478 107.913 105.293 107.913 105.064C107.913 104.836 107.789 104.651 107.637 104.651C107.485 104.651 107.361 104.836 107.361 105.064C107.361 105.293 107.485 105.478 107.637 105.478Z" fill="#FF6584"/>
<path id="Vector_33" d="M104.328 104.101C104.48 104.101 104.604 103.916 104.604 103.688C104.604 103.459 104.48 103.274 104.328 103.274C104.176 103.274 104.052 103.459 104.052 103.688C104.052 103.916 104.176 104.101 104.328 104.101Z" fill="#FF6584"/>
<path id="Vector_34" d="M115.082 95.2884C117.519 95.2884 119.494 93.3156 119.494 90.882C119.494 88.4484 117.519 86.4756 115.082 86.4756C112.645 86.4756 110.67 88.4484 110.67 90.882C110.67 93.3156 112.645 95.2884 115.082 95.2884Z" fill="#FF6584"/>
<path id="Vector_35" opacity="0.2" d="M118.391 91.1572C118.391 92.0337 118.043 92.8743 117.422 93.4941C116.801 94.1138 115.96 94.462 115.082 94.462C114.205 94.462 113.363 94.1138 112.742 93.4941C112.122 92.8743 111.773 92.0337 111.773 91.1572" fill="black"/>
<path id="Vector_36" opacity="0.2" d="M111.773 90.6065C111.773 89.7301 112.122 88.8895 112.742 88.2697C113.363 87.6499 114.205 87.3018 115.082 87.3018C115.96 87.3018 116.801 87.6499 117.422 88.2697C118.043 88.8895 118.391 89.7301 118.391 90.6065" fill="black"/>
<path id="Vector_37" d="M113.428 89.7803C113.58 89.7803 113.703 89.5953 113.703 89.3672C113.703 89.1391 113.58 88.9541 113.428 88.9541C113.275 88.9541 113.152 89.1391 113.152 89.3672C113.152 89.5953 113.275 89.7803 113.428 89.7803Z" fill="#FF6584"/>
<path id="Vector_38" d="M115.082 89.2295C115.234 89.2295 115.358 89.0446 115.358 88.8164C115.358 88.5883 115.234 88.4033 115.082 88.4033C114.93 88.4033 114.806 88.5883 114.806 88.8164C114.806 89.0446 114.93 89.2295 115.082 89.2295Z" fill="#FF6584"/>
<path id="Vector_39" d="M115.082 92.8096C115.234 92.8096 115.358 92.6246 115.358 92.3965C115.358 92.1683 115.234 91.9834 115.082 91.9834C114.93 91.9834 114.806 92.1683 114.806 92.3965C114.806 92.6246 114.93 92.8096 115.082 92.8096Z" fill="#FF6584"/>
<path id="Vector_40" d="M116.737 90.6065C116.889 90.6065 117.012 90.4215 117.012 90.1934C117.012 89.9652 116.889 89.7803 116.737 89.7803C116.584 89.7803 116.461 89.9652 116.461 90.1934C116.461 90.4215 116.584 90.6065 116.737 90.6065Z" fill="#FF6584"/>
<path id="Vector_41" d="M116.461 93.6358C116.613 93.6358 116.737 93.4508 116.737 93.2227C116.737 92.9945 116.613 92.8096 116.461 92.8096C116.309 92.8096 116.185 92.9945 116.185 93.2227C116.185 93.4508 116.309 93.6358 116.461 93.6358Z" fill="#FF6584"/>
<path id="Vector_42" d="M113.152 92.2588C113.304 92.2588 113.428 92.0739 113.428 91.8457C113.428 91.6176 113.304 91.4326 113.152 91.4326C113 91.4326 112.876 91.6176 112.876 91.8457C112.876 92.0739 113 92.2588 113.152 92.2588Z" fill="#FF6584"/>
<path id="Vector_43" d="M123.906 101.347C126.343 101.347 128.318 99.3741 128.318 96.9406C128.318 94.507 126.343 92.5342 123.906 92.5342C121.469 92.5342 119.494 94.507 119.494 96.9406C119.494 99.3741 121.469 101.347 123.906 101.347Z" fill="#6318AF"/>
<path id="Vector_44" opacity="0.2" d="M127.215 97.2158C127.215 98.0923 126.866 98.9329 126.246 99.5527C125.625 100.172 124.784 100.521 123.906 100.521C123.029 100.521 122.187 100.172 121.566 99.5527C120.946 98.9329 120.597 98.0923 120.597 97.2158" fill="black"/>
<path id="Vector_45" opacity="0.2" d="M120.597 96.6651C120.597 95.7887 120.946 94.9481 121.566 94.3283C122.187 93.7085 123.029 93.3604 123.906 93.3604C124.784 93.3604 125.625 93.7085 126.246 94.3283C126.866 94.9481 127.215 95.7887 127.215 96.6651" fill="black"/>
<path id="Vector_46" d="M122.252 95.8389C122.404 95.8389 122.527 95.6539 122.527 95.4258C122.527 95.1976 122.404 95.0127 122.252 95.0127C122.099 95.0127 121.976 95.1976 121.976 95.4258C121.976 95.6539 122.099 95.8389 122.252 95.8389Z" fill="#6318AF"/>
<path id="Vector_47" d="M123.906 95.2881C124.058 95.2881 124.182 95.1032 124.182 94.875C124.182 94.6469 124.058 94.4619 123.906 94.4619C123.754 94.4619 123.63 94.6469 123.63 94.875C123.63 95.1032 123.754 95.2881 123.906 95.2881Z" fill="#6318AF"/>
<path id="Vector_48" d="M123.906 98.8682C124.058 98.8682 124.182 98.6832 124.182 98.4551C124.182 98.2269 124.058 98.042 123.906 98.042C123.754 98.042 123.63 98.2269 123.63 98.4551C123.63 98.6832 123.754 98.8682 123.906 98.8682Z" fill="#6318AF"/>
<path id="Vector_49" d="M125.561 96.6651C125.713 96.6651 125.836 96.4801 125.836 96.252C125.836 96.0238 125.713 95.8389 125.561 95.8389C125.408 95.8389 125.285 96.0238 125.285 96.252C125.285 96.4801 125.408 96.6651 125.561 96.6651Z" fill="#6318AF"/>
<path id="Vector_50" d="M125.285 99.6944C125.437 99.6944 125.561 99.5094 125.561 99.2813C125.561 99.0531 125.437 98.8682 125.285 98.8682C125.132 98.8682 125.009 99.0531 125.009 99.2813C125.009 99.5094 125.132 99.6944 125.285 99.6944Z" fill="#6318AF"/>
<path id="Vector_51" d="M121.976 98.3174C122.128 98.3174 122.252 98.1325 122.252 97.9043C122.252 97.6762 122.128 97.4912 121.976 97.4912C121.824 97.4912 121.7 97.6762 121.7 97.9043C121.7 98.1325 121.824 98.3174 121.976 98.3174Z" fill="#6318AF"/>
<path id="Vector_52" d="M101.846 101.898C104.283 101.898 106.258 99.9249 106.258 97.4913C106.258 95.0578 104.283 93.085 101.846 93.085C99.4096 93.085 97.4343 95.0578 97.4343 97.4913C97.4343 99.9249 99.4096 101.898 101.846 101.898Z" fill="#6318AF"/>
<path id="Vector_53" opacity="0.2" d="M105.155 97.7666C105.155 98.6431 104.807 99.4837 104.186 100.103C103.566 100.723 102.724 101.071 101.846 101.071C100.969 101.071 100.127 100.723 99.5065 100.103C98.886 99.4837 98.5374 98.6431 98.5374 97.7666" fill="black"/>
<path id="Vector_54" opacity="0.2" d="M98.5374 97.2159C98.5374 96.3394 98.886 95.4989 99.5065 94.8791C100.127 94.2593 100.969 93.9111 101.846 93.9111C102.724 93.9111 103.566 94.2593 104.186 94.8791C104.807 95.4989 105.155 96.3394 105.155 97.2159" fill="black"/>
<path id="Vector_55" d="M100.192 96.3897C100.344 96.3897 100.468 96.2047 100.468 95.9766C100.468 95.7484 100.344 95.5635 100.192 95.5635C100.039 95.5635 99.916 95.7484 99.916 95.9766C99.916 96.2047 100.039 96.3897 100.192 96.3897Z" fill="#6318AF"/>
<path id="Vector_56" d="M101.846 95.8389C101.999 95.8389 102.122 95.6539 102.122 95.4258C102.122 95.1976 101.999 95.0127 101.846 95.0127C101.694 95.0127 101.571 95.1976 101.571 95.4258C101.571 95.6539 101.694 95.8389 101.846 95.8389Z" fill="#6318AF"/>
<path id="Vector_57" d="M101.846 99.419C101.999 99.419 102.122 99.234 102.122 99.0059C102.122 98.7777 101.999 98.5928 101.846 98.5928C101.694 98.5928 101.571 98.7777 101.571 99.0059C101.571 99.234 101.694 99.419 101.846 99.419Z" fill="#6318AF"/>
<path id="Vector_58" d="M103.501 97.2158C103.653 97.2158 103.777 97.0309 103.777 96.8027C103.777 96.5746 103.653 96.3896 103.501 96.3896C103.349 96.3896 103.225 96.5746 103.225 96.8027C103.225 97.0309 103.349 97.2158 103.501 97.2158Z" fill="#6318AF"/>
<path id="Vector_59" d="M103.225 100.245C103.377 100.245 103.501 100.06 103.501 99.832C103.501 99.6039 103.377 99.4189 103.225 99.4189C103.073 99.4189 102.949 99.6039 102.949 99.832C102.949 100.06 103.073 100.245 103.225 100.245Z" fill="#6318AF"/>
<path id="Vector_60" d="M99.9161 98.8682C100.068 98.8682 100.192 98.6832 100.192 98.4551C100.192 98.2269 100.068 98.042 99.9161 98.042C99.7638 98.042 99.6404 98.2269 99.6404 98.4551C99.6404 98.6832 99.7638 98.8682 99.9161 98.8682Z" fill="#6318AF"/>
<path id="Vector_61" d="M111.773 103.825C114.21 103.825 116.185 101.853 116.185 99.4191C116.185 96.9855 114.21 95.0127 111.773 95.0127C109.337 95.0127 107.361 96.9855 107.361 99.4191C107.361 101.853 109.337 103.825 111.773 103.825Z" fill="#6318AF"/>
<path id="Vector_62" opacity="0.2" d="M115.082 99.6943C115.082 100.128 114.997 100.558 114.83 100.959C114.664 101.36 114.42 101.724 114.113 102.031C113.806 102.338 113.441 102.581 113.04 102.748C112.638 102.914 112.208 102.999 111.773 102.999C111.339 102.999 110.909 102.914 110.507 102.748C110.106 102.581 109.741 102.338 109.434 102.031C109.126 101.724 108.883 101.36 108.716 100.959C108.55 100.558 108.464 100.128 108.464 99.6943" fill="black"/>
<path id="Vector_63" opacity="0.2" d="M108.464 99.1437C108.464 98.7097 108.55 98.2799 108.716 97.879C108.883 97.478 109.126 97.1137 109.434 96.8068C109.741 96.4999 110.106 96.2565 110.507 96.0904C110.909 95.9244 111.339 95.8389 111.773 95.8389C112.208 95.8389 112.638 95.9244 113.04 96.0904C113.441 96.2565 113.806 96.4999 114.113 96.8068C114.42 97.1137 114.664 97.478 114.83 97.879C114.997 98.2799 115.082 98.7097 115.082 99.1437" fill="black"/>
<path id="Vector_64" d="M110.119 98.3174C110.271 98.3174 110.395 98.1325 110.395 97.9043C110.395 97.6762 110.271 97.4912 110.119 97.4912C109.966 97.4912 109.843 97.6762 109.843 97.9043C109.843 98.1325 109.966 98.3174 110.119 98.3174Z" fill="#6318AF"/>
<path id="Vector_65" d="M111.773 97.7666C111.926 97.7666 112.049 97.5817 112.049 97.3535C112.049 97.1254 111.926 96.9404 111.773 96.9404C111.621 96.9404 111.498 97.1254 111.498 97.3535C111.498 97.5817 111.621 97.7666 111.773 97.7666Z" fill="#6318AF"/>
<path id="Vector_66" d="M111.773 101.347C111.926 101.347 112.049 101.162 112.049 100.934C112.049 100.705 111.926 100.521 111.773 100.521C111.621 100.521 111.498 100.705 111.498 100.934C111.498 101.162 111.621 101.347 111.773 101.347Z" fill="#6318AF"/>
<path id="Vector_67" d="M113.428 99.1436C113.58 99.1436 113.703 98.9586 113.703 98.7305C113.703 98.5023 113.58 98.3174 113.428 98.3174C113.275 98.3174 113.152 98.5023 113.152 98.7305C113.152 98.9586 113.275 99.1436 113.428 99.1436Z" fill="#6318AF"/>
<path id="Vector_68" d="M113.152 102.173C113.304 102.173 113.428 101.988 113.428 101.76C113.428 101.532 113.304 101.347 113.152 101.347C113 101.347 112.876 101.532 112.876 101.76C112.876 101.988 113 102.173 113.152 102.173Z" fill="#6318AF"/>
<path id="Vector_69" d="M109.843 100.796C109.995 100.796 110.119 100.611 110.119 100.383C110.119 100.155 109.995 99.9697 109.843 99.9697C109.691 99.9697 109.567 100.155 109.567 100.383C109.567 100.611 109.691 100.796 109.843 100.796Z" fill="#6318AF"/>
<path id="Vector_70" d="M118.667 108.507C121.103 108.507 123.079 106.534 123.079 104.101C123.079 101.667 121.103 99.6943 118.667 99.6943C116.23 99.6943 114.255 101.667 114.255 104.101C114.255 106.534 116.23 108.507 118.667 108.507Z" fill="#FF6584"/>
<path id="Vector_71" opacity="0.2" d="M121.976 104.376C121.976 105.252 121.627 106.093 121.007 106.713C120.386 107.333 119.544 107.681 118.667 107.681C117.789 107.681 116.948 107.333 116.327 106.713C115.707 106.093 115.358 105.252 115.358 104.376" fill="black"/>
<path id="Vector_72" opacity="0.2" d="M115.358 103.825C115.358 102.949 115.707 102.108 116.327 101.488C116.948 100.869 117.789 100.521 118.667 100.521C119.544 100.521 120.386 100.869 121.007 101.488C121.627 102.108 121.976 102.949 121.976 103.825" fill="black"/>
<path id="Vector_73" d="M117.012 102.999C117.165 102.999 117.288 102.814 117.288 102.586C117.288 102.358 117.165 102.173 117.012 102.173C116.86 102.173 116.737 102.358 116.737 102.586C116.737 102.814 116.86 102.999 117.012 102.999Z" fill="#FF6584"/>
<path id="Vector_74" d="M118.667 102.448C118.819 102.448 118.943 102.263 118.943 102.035C118.943 101.807 118.819 101.622 118.667 101.622C118.515 101.622 118.391 101.807 118.391 102.035C118.391 102.263 118.515 102.448 118.667 102.448Z" fill="#FF6584"/>
<path id="Vector_75" d="M118.667 106.028C118.819 106.028 118.943 105.843 118.943 105.615C118.943 105.387 118.819 105.202 118.667 105.202C118.515 105.202 118.391 105.387 118.391 105.615C118.391 105.843 118.515 106.028 118.667 106.028Z" fill="#FF6584"/>
<path id="Vector_76" d="M120.321 103.825C120.474 103.825 120.597 103.64 120.597 103.412C120.597 103.184 120.474 102.999 120.321 102.999C120.169 102.999 120.046 103.184 120.046 103.412C120.046 103.64 120.169 103.825 120.321 103.825Z" fill="#FF6584"/>
<path id="Vector_77" d="M120.046 106.855C120.198 106.855 120.321 106.67 120.321 106.441C120.321 106.213 120.198 106.028 120.046 106.028C119.893 106.028 119.77 106.213 119.77 106.441C119.77 106.67 119.893 106.855 120.046 106.855Z" fill="#FF6584"/>
<path id="Vector_78" d="M116.737 105.478C116.889 105.478 117.012 105.293 117.012 105.064C117.012 104.836 116.889 104.651 116.737 104.651C116.584 104.651 116.461 104.836 116.461 105.064C116.461 105.293 116.584 105.478 116.737 105.478Z" fill="#FF6584"/>
<path id="Vector_79" d="M61.9294 88.4697C62.5753 88.4697 63.0989 87.9468 63.0989 87.3017C63.0989 86.6567 62.5753 86.1338 61.9294 86.1338C61.2836 86.1338 60.76 86.6567 60.76 87.3017C60.76 87.9468 61.2836 88.4697 61.9294 88.4697Z" fill="#3F3D56"/>
<path id="Vector_80" d="M93.7171 129.695L65.6313 121.916L66.7072 117.925L94.793 125.704L93.7171 129.695Z" fill="#F9A825"/>
<path id="Vector_81" d="M89.5998 128.362C79.9819 130.201 70.1022 130.201 60.4844 128.362V124.225C70.1238 125.82 79.9604 125.82 89.5998 124.225V128.362Z" fill="#F9A825"/>
<path id="Vector_82" d="M92.5929 115.95C82.9751 117.789 73.0953 117.789 63.4775 115.95V111.812C73.1169 113.408 82.9536 113.408 92.5929 111.812V115.95Z" fill="#F9A825"/>
<path id="Vector_83" d="M102.661 120.915C93.043 122.754 83.1632 122.754 73.5454 120.915V116.777C83.1848 118.373 93.0214 118.373 102.661 116.777V120.915Z" fill="#F9A825"/>
<path id="Vector_84" d="M105.11 125.603C95.492 127.442 85.6122 127.442 75.9944 125.603V121.466C85.6338 123.061 95.4704 123.061 105.11 121.466V125.603Z" fill="#F9A825"/>
<path id="Vector_85" d="M113.648 131.73L84.9228 136.549L84.2566 132.467L112.981 127.648L113.648 131.73Z" fill="#F9A825"/>
<path id="Vector_86" d="M109.357 132.261C101.393 137.995 92.4176 142.176 82.9013 144.585L81.197 140.825C90.63 138.187 99.5668 134.025 107.653 128.502L109.357 132.261Z" fill="#F9A825"/>
<path id="Vector_87" d="M106.964 119.716C98.9999 125.449 90.0243 129.63 80.508 132.039L78.8037 128.28C88.2367 125.641 97.1735 121.479 105.259 115.956L106.964 119.716Z" fill="#F9A825"/>
<path id="Vector_88" d="M118.157 119.966C110.194 125.699 101.218 129.88 91.7016 132.289L89.9973 128.53C99.4303 125.891 108.367 121.729 116.453 116.206L118.157 119.966Z" fill="#F9A825"/>
<path id="Vector_89" d="M122.314 123.19C114.35 128.924 105.375 133.105 95.8583 135.514L94.1541 131.754C103.587 129.116 112.524 124.953 120.61 119.431L122.314 123.19Z" fill="#F9A825"/>
<path id="Vector_90" d="M87.5074 115.117H86.1287V116.494H87.5074V115.117Z" fill="#00BF71"/>
<path id="Vector_91" d="M91.6436 139.076H90.2649V140.453H91.6436V139.076Z" fill="#00BF71"/>
<path id="Vector_92" d="M69.5838 115.117H68.2051V116.494H69.5838V115.117Z" fill="#00BF71"/>
<path id="Vector_93" d="M101.571 132.191H100.192V133.568H101.571V132.191Z" fill="#00BF71"/>
<path id="Vector_94" d="M102.398 124.205H101.019V125.582H102.398V124.205Z" fill="#00BF71"/>
<path id="Vector_95" d="M79.6539 120.435L78.0566 119.353L77.4374 120.264L79.0347 121.346L79.6539 120.435Z" fill="#00BF71"/>
<path id="Vector_96" d="M95.923 123.464L94.3257 122.382L93.7064 123.293L95.3037 124.376L95.923 123.464Z" fill="#00BF71"/>
<path id="Vector_97" d="M76.0692 128.697L74.4719 127.614L73.8527 128.526L75.45 129.608L76.0692 128.697Z" fill="#00BF71"/>
<path id="Vector_98" d="M86.1812 128.617L87.2649 127.021L86.3522 126.403L85.2684 127.998L86.1812 128.617Z" fill="#00BF71"/>
<path id="Vector_99" d="M93.6262 130.544L94.71 128.949L93.7972 128.331L92.7135 129.926L93.6262 130.544Z" fill="#00BF71"/>
<path id="Vector_100" d="M113.482 123.934L114.566 122.339L113.653 121.72L112.569 123.316L113.482 123.934Z" fill="#00BF71"/>
</g>
</svg>
