<svg width="65" height="89" viewBox="0 0 65 89" fill="none" xmlns="http://www.w3.org/2000/svg">
<g id="Group 35347">
<path id="Vector" d="M19.5813 5.48138L10.4448 9.7418C10.1236 9.8916 9.8749 10.1627 9.75353 10.4955C9.63216 10.8283 9.64804 11.1956 9.79765 11.5164L11.6653 15.5216C11.8149 15.8425 12.086 16.0907 12.419 16.2117C12.752 16.3326 13.1195 16.3164 13.4408 16.1666L14.9548 15.4606L17.7532 21.4618L23.8616 18.6134L21.0632 12.6122L22.5773 11.9062C22.8985 11.7564 23.1472 11.4852 23.2686 11.1524C23.3899 10.8196 23.3741 10.4524 23.2244 10.1315L21.3568 6.12632C21.2072 5.80547 20.936 5.55726 20.6031 5.43631C20.2701 5.31536 19.9026 5.33158 19.5813 5.48138Z" fill="#6318AF"/>
<path id="Vector_2" d="M45.8255 37.8699C36.4168 32.3018 29.0162 23.8994 24.6838 13.8664C24.5824 13.6356 24.4041 13.447 24.1792 13.3328C23.9543 13.2185 23.6967 13.1856 23.4501 13.2396L22.6431 11.509L12.9938 16.0085L13.7896 17.7151L13.6566 17.7771C13.5206 17.8408 13.3992 17.9317 13.2999 18.0443C13.2006 18.1569 13.1255 18.2888 13.0795 18.4316C13.0334 18.5744 13.0173 18.7251 13.0322 18.8744C13.047 19.0237 13.0925 19.1682 13.1658 19.2991C18.8611 29.5281 20.7199 40.2161 18.7421 51.3633C18.628 52.0041 18.7249 52.6644 19.0184 53.2451L35.2734 85.3494C35.6378 86.0646 36.2647 86.6113 37.0233 86.8754C37.7818 87.1394 38.6135 87.1005 39.3445 86.7666L61.1699 76.5892C61.9038 76.2397 62.4724 75.6178 62.7546 74.856C63.0367 74.0942 63.0101 73.2527 62.6804 72.5108L48.3292 40.6728C47.7995 39.5056 46.9261 38.5278 45.8255 37.8699Z" fill="#3F3D56"/>
<path id="Vector_3" opacity="0.2" d="M18.2852 7.67406C18.608 8.36629 18.6422 9.15857 18.3804 9.87659C18.1185 10.5946 17.582 11.1796 16.8889 11.5028C16.1958 11.826 15.4029 11.8609 14.6845 11.6C13.9662 11.3391 13.3813 10.8036 13.0585 10.1113" fill="black"/>
<path id="Vector_4" d="M47.4193 50.3087L44.7764 51.5411C43.7616 50.0235 42.2364 48.9195 40.4767 48.4287C38.7169 47.9379 36.8389 48.0928 35.1823 48.8653C33.5257 49.6378 32.1999 50.9769 31.4447 52.6404C30.6896 54.3039 30.5549 56.1819 31.0651 57.9348L28.422 59.1673C28.1408 59.2984 27.8913 59.4887 27.6904 59.7252C27.4896 59.9616 27.3423 60.2386 27.2586 60.5371C27.1749 60.8357 27.1568 61.1487 27.2055 61.4548C27.2542 61.7608 27.3686 62.0527 27.5408 62.3103L39.1018 79.6081L55.5861 71.9213L50.4121 51.7217C50.3337 51.4157 50.1888 51.1309 49.9877 50.8874C49.7866 50.6438 49.5342 50.4476 49.2484 50.3127C48.9627 50.1778 48.6507 50.1075 48.3345 50.1068C48.0184 50.1061 47.7059 50.175 47.4193 50.3087Z" fill="url(#paint0_linear_19_542)"/>
</g>
<defs>
<linearGradient id="paint0_linear_19_542" x1="35.1822" y1="48.8653" x2="47.6574" y2="75.6185" gradientUnits="userSpaceOnUse">
<stop stop-color="#F7E5B7"/>
<stop offset="1" stop-color="#F7E5B7"/>
</linearGradient>
</defs>
</svg>
